<svg width="34" height="29" viewBox="0 0 34 29" fill="none" xmlns="http://www.w3.org/2000/svg">
<g filter="url(#filter0_d_5_220)">
<path d="M15.5858 20.8932L15.5777 20.8897L15.552 20.8757C15.4018 20.7931 15.2529 20.7083 15.1052 20.6214C13.3293 19.5661 11.6697 18.3265 10.1538 16.923C7.46933 14.4182 4.625 10.7012 4.625 6.12319C4.625 2.70719 7.49967 -0.00180931 10.9693 -0.00180931C11.9339 -0.00653364 12.8871 0.206255 13.758 0.62073C14.629 1.03521 15.3953 1.6407 16 2.39219C16.6048 1.64055 17.3713 1.03496 18.2425 0.620476C19.1137 0.205994 20.0671 -0.00670932 21.0318 -0.00180931C24.5003 -0.00180931 27.375 2.70719 27.375 6.12319C27.375 10.7024 24.5307 14.4194 21.8462 16.9219C20.3304 18.3253 18.6707 19.565 16.8948 20.6202C16.7471 20.7075 16.5982 20.7927 16.448 20.8757L16.4223 20.8897L16.4142 20.8944L16.4107 20.8955C16.2842 20.9625 16.1432 20.9976 16 20.9976C15.8568 20.9976 15.7158 20.9625 15.5893 20.8955L15.5858 20.8932Z" fill="white"/>
</g>
<path d="M25.8933 18.9649L29.0833 12.7316H26.8833V8.69823L23.5833 14.9316H25.8933V18.9649ZM26.3333 21.1649C25.3189 21.1649 24.3656 20.9724 23.4733 20.5874C22.5811 20.2024 21.805 19.6799 21.145 19.0199C20.485 18.3599 19.9625 17.5838 19.5775 16.6916C19.1925 15.7993 19 14.846 19 13.8316C19 12.8171 19.1925 11.8638 19.5775 10.9716C19.9625 10.0793 20.485 9.30323 21.145 8.64323C21.805 7.98323 22.5811 7.46073 23.4733 7.07573C24.3656 6.69073 25.3189 6.49823 26.3333 6.49823C27.3478 6.49823 28.3011 6.69073 29.1933 7.07573C30.0856 7.46073 30.8617 7.98323 31.5217 8.64323C32.1817 9.30323 32.7042 10.0793 33.0892 10.9716C33.4742 11.8638 33.6667 12.8171 33.6667 13.8316C33.6667 14.846 33.4742 15.7993 33.0892 16.6916C32.7042 17.5838 32.1817 18.3599 31.5217 19.0199C30.8617 19.6799 30.0856 20.2024 29.1933 20.5874C28.3011 20.9724 27.3478 21.1649 26.3333 21.1649Z" fill="#894189"/>
<path d="M26.2667 18.4982L29.1667 12.8315H27.1667V9.16486L24.1667 14.8315H26.2667V18.4982ZM26.6667 20.4982C25.7444 20.4982 24.8778 20.3232 24.0667 19.9732C23.2556 19.6232 22.55 19.1482 21.95 18.5482C21.35 17.9482 20.875 17.2426 20.525 16.4315C20.175 15.6204 20 14.7537 20 13.8315C20 12.9093 20.175 12.0426 20.525 11.2315C20.875 10.4204 21.35 9.71486 21.95 9.11486C22.55 8.51486 23.2556 8.03986 24.0667 7.68986C24.8778 7.33986 25.7444 7.16486 26.6667 7.16486C27.5889 7.16486 28.4556 7.33986 29.2667 7.68986C30.0778 8.03986 30.7833 8.51486 31.3833 9.11486C31.9833 9.71486 32.4583 10.4204 32.8083 11.2315C33.1583 12.0426 33.3333 12.9093 33.3333 13.8315C33.3333 14.7537 33.1583 15.6204 32.8083 16.4315C32.4583 17.2426 31.9833 17.9482 31.3833 18.5482C30.7833 19.1482 30.0778 19.6232 29.2667 19.9732C28.4556 20.3232 27.5889 20.4982 26.6667 20.4982Z" fill="white"/>
<defs>
<filter id="filter0_d_5_220" x="0.625" y="-0.00189209" width="30.75" height="28.9995" filterUnits="userSpaceOnUse" color-interpolation-filters="sRGB">
<feFlood flood-opacity="0" result="BackgroundImageFix"/>
<feColorMatrix in="SourceAlpha" type="matrix" values="0 0 0 0 0 0 0 0 0 0 0 0 0 0 0 0 0 0 127 0" result="hardAlpha"/>
<feOffset dy="4"/>
<feGaussianBlur stdDeviation="2"/>
<feComposite in2="hardAlpha" operator="out"/>
<feColorMatrix type="matrix" values="0 0 0 0 0 0 0 0 0 0 0 0 0 0 0 0 0 0 0.25 0"/>
<feBlend mode="normal" in2="BackgroundImageFix" result="effect1_dropShadow_5_220"/>
<feBlend mode="normal" in="SourceGraphic" in2="effect1_dropShadow_5_220" result="shape"/>
</filter>
</defs>
</svg>
